<?xml version="1.0" encoding="utf-8"?>
<!-- Generator: Adobe Illustrator 16.0.0, SVG Export Plug-In . SVG Version: 6.00 Build 0)  -->
<!DOCTYPE svg PUBLIC "-//W3C//DTD SVG 1.1//EN" "http://www.w3.org/Graphics/SVG/1.1/DTD/svg11.dtd">
<svg version="1.1" id="Layer_1" xmlns="http://www.w3.org/2000/svg" xmlns:xlink="http://www.w3.org/1999/xlink" x="0px" y="0px"
	 width="732.625px" height="175px" viewBox="0 0 732.625 175" enable-background="new 0 0 732.625 175" xml:space="preserve">
<g>
	<text transform="matrix(1 0 0 1 185.6406 121.6367)" fill="#FFFFFF" font-family="'BerlinSansFB-Reg'" font-size="103.0278">Papercrunch</text>
	<g>
		<circle fill="#FFFFFF" cx="87.608" cy="87.5" r="85.494"/>
		<g>
			<g>
				<polygon fill="#C8C2B8" points="15.777,70.914 18.263,66.006 69.7,76.862 83.432,71.045 97.446,73.761 103.205,66.955 
					122.837,59.789 148.229,46.178 151.303,78.127 152.548,111.109 150.322,121.303 96.302,97.613 68.718,111.355 50.067,119.602 
					39.859,125.688 25.787,128.632 21.896,98.643 				"/>
				<polygon fill="#DBD4C9" points="18.46,66.006 25.724,83.73 26.509,94 41.822,94 70.978,88.591 84.198,83.703 93.65,76.916 
					109.439,75.709 131.148,78.638 142.927,74 146.461,74 148.424,46.505 115.965,58.292 92.768,72.411 80.039,62.779 70.55,75.567 
									"/>
				<polygon fill="#F1E8DB" points="60.669,73.564 67.463,87.307 26.412,99.328 25.952,83.477 				"/>
				<polygon fill="#FFF9EE" points="18.263,66.006 25.952,83.477 60.915,73.761 				"/>
				<polygon fill="#DBD4C9" points="25.787,128.632 27.099,111.16 22.779,86.619 80.693,93.098 94.584,89.613 118.878,88.2 
					147.509,81.442 146.104,98.595 150.322,121.303 95.906,97.535 65.773,112.601 39.859,125.688 				"/>
				<polygon fill="#FFF9EE" points="77.716,105.457 97.676,99.328 92.289,96.804 94.584,89.613 80.693,93.098 				"/>
				<polygon fill="#FFF9EE" points="146.104,98.595 118.396,88.228 147.509,81.442 				"/>
				<polygon fill="#F1E8DB" points="146.104,98.595 118.878,88.2 103.47,89.097 110.993,101.933 				"/>
				<polygon fill="#FFF9EE" points="27.271,112.033 57.332,98.791 22.779,86.619 				"/>
				<polygon fill="#F1E8DB" points="25.701,129.115 39.859,125.688 61.489,114.764 80.693,93.098 57.332,98.791 27.271,112.033 				
					"/>
				<polygon fill="#FFF9EE" points="148.229,46.542 146.461,74 143.712,74 115.965,58.66 				"/>
				<polygon fill="#F1E8DB" points="105.954,66.137 115.965,58.11 142.934,72.992 131.148,78.244 109.108,75.678 108.742,75.703 
									"/>
			</g>
			<polygon fill="#FFF9EE" points="146.104,98.595 150.322,121.303 116.522,106.742 115.965,101.594 			"/>
			<line fill="none" stroke="#D2CDC5" stroke-miterlimit="10" x1="79.358" y1="98.643" x2="89.037" y2="100.252"/>
			<line fill="none" stroke="#D2CDC5" stroke-miterlimit="10" x1="80.337" y1="94.58" x2="94.27" y2="96.933"/>
			<line fill="none" stroke="#D2CDC5" stroke-miterlimit="10" x1="90.046" y1="90.753" x2="93.891" y2="91.801"/>
			<path fill="#3BBEB9" d="M57.185,70.056c-0.737,0.281-7.51,3.46-4.712,9.938c2.797,6.479,9.129,4.613,10.749,1.717
				c1.619-2.896-1.46-12.244-1.842-12.343C60.999,69.27,57.921,69.773,57.185,70.056z"/>
			<path fill="#3BBEB9" d="M67.736,59.724c-3.072,2.57-7.328,9.816-7.067,12.434c0.262,2.618,3.665,18.716,10.471,17.146
				c6.807-1.57,7.853-6.807,3.01-17.932c0,0,2.718-2.172,4.209-3.334l2.937-1.569C81.295,66.468,74.936,53.703,67.736,59.724z"/>
			<path fill="#3BBEB9" d="M81.38,52.263c-4.955,5.483-2.648,14.921-2.552,17.669c0.1,2.75,3.634,16.59,8.246,16.786
				c4.614,0.197,13.743-1.538,5.596-23.133l0.883-5.53c0,0,2.024,1.768,1.453-2.944C94.437,50.398,87.859,45.098,81.38,52.263z"/>
			<path fill="#3BBEB9" d="M99.017,83.937c5.819,2.495,12.468-0.841,8.899-11.517c-2.412-7.224-1.962-6.283-1.962-6.283
				s0.444-1.117,1.635-1.75c0.316-0.168,5.744-4.663,5.744-4.663s-2.014-9.62-11.109-8.18c-9.097,1.439-9.294,10.536-9.227,13.35
				S95.811,82.563,99.017,83.937z"/>
			<path fill="#3BBEB9" d="M81.773,128.632c6.479,3.142,23.361,2.651,30.233,0.589c6.871-2.061,13.645-8.342,12.467-19.926
				s-10.209-9.816-13.252-11.976c-3.042-2.159-10.307-5.497-14.233-3.534c-3.927,1.965-4.613,2.944-7.363,3.926
				c-2.746,0.982-10.992,0.884-12.269,3.633c-1.276,2.748,1.865,7.559,4.516,8.736s18.159-0.295,19.926-3.141l7.27,1.168
				l-30.99-2.51L65.773,112.6"/>
			<path fill="#09B6A9" d="M109.067,108.107c0,0-4.177-0.727-8.414,0.779c-1.29,0.457-5.431,1.496-9.652,2.027
				c-5.849,0.737-11.47-0.523-13.158-5.184c0,0,1.755,5.134,9.854,4.709c8.324-0.438,12.548-2.045,14.102-3.5L109.067,108.107z"/>
			<path fill="#09B6A9" d="M61.245,69.352c0,0-0.753,2.943-0.33,4.409c0.238,0.828,2.29,7.978,2.29,7.978s-2.184-6.727-2.536-8.174
				C60.316,72.116,61.245,69.352,61.245,69.352z"/>
			<path fill="#09B6A9" d="M95.086,55.961l-1.469,1.799c0,0-1.055,3.822-0.98,5.711c0.155,3.959,2.586,12.621,3.27,15.178
				c0,0-3.027-12.917-2.876-15.063c0.148-2.132,0.357-3.797,0.829-4.953C94.674,56.634,95.086,55.961,95.086,55.961z"/>
			<line fill="none" stroke="#D2CDC5" stroke-miterlimit="10" x1="23.567" y1="66.97" x2="30.418" y2="82.235"/>
			<line fill="none" stroke="#D2CDC5" stroke-miterlimit="10" x1="29.756" y1="68.074" x2="35.561" y2="80.806"/>
			<line fill="none" stroke="#D2CDC5" stroke-miterlimit="10" x1="35.561" y1="69.15" x2="40.708" y2="79.376"/>
			<line fill="none" stroke="#D2CDC5" stroke-miterlimit="10" x1="41.103" y1="69.998" x2="45.2" y2="78.127"/>
			<line fill="none" stroke="#D2CDC5" stroke-miterlimit="10" x1="46.666" y1="71.17" x2="49.479" y2="76.862"/>
			<line fill="none" stroke="#D2CDC5" stroke-miterlimit="10" x1="51.799" y1="72.104" x2="53.197" y2="76.215"/>
			<line fill="none" stroke="#D2CDC5" stroke-miterlimit="10" x1="30.418" y1="82.235" x2="31.287" y2="87.405"/>
			<line fill="none" stroke="#D2CDC5" stroke-miterlimit="10" x1="35.561" y1="80.806" x2="36.367" y2="88.14"/>
			<line fill="none" stroke="#D2CDC5" stroke-miterlimit="10" x1="40.708" y1="79.376" x2="41.488" y2="88.713"/>
			<line fill="none" stroke="#D2CDC5" stroke-miterlimit="10" x1="45.2" y1="78.127" x2="45.813" y2="89.195"/>
			<line fill="none" stroke="#D2CDC5" stroke-miterlimit="10" x1="49.479" y1="76.862" x2="50.067" y2="89.41"/>
			<line fill="none" stroke="#D2CDC5" stroke-miterlimit="10" x1="53.197" y1="76.215" x2="53.657" y2="90.1"/>
			<line fill="none" stroke="#D2CDC5" stroke-miterlimit="10" x1="57.11" y1="84.368" x2="57.949" y2="90.457"/>
			<line fill="none" stroke="#D2CDC5" stroke-miterlimit="10" x1="60.116" y1="84.143" x2="60.664" y2="89.387"/>
			<line fill="none" stroke="#D2CDC5" stroke-miterlimit="10" x1="62.864" y1="82.24" x2="63.412" y2="88.995"/>
			<line fill="none" stroke="#D2CDC5" stroke-miterlimit="10" x1="28.912" y1="87.307" x2="27.884" y2="88.2"/>
			<polygon fill="#F1E8DB" points="80.693,93.098 22.779,86.619 57.233,98.791 			"/>
			<line fill="none" stroke="#D2CDC5" stroke-miterlimit="10" x1="27.884" y1="88.2" x2="31.287" y2="110.266"/>
			<line fill="none" stroke="#D2CDC5" stroke-miterlimit="10" x1="31.287" y1="110.266" x2="29.756" y2="127.801"/>
			<polygon fill="#FFF9EE" points="57.332,98.791 75.401,99.07 80.693,93.098 			"/>
			<line fill="none" stroke="#D2CDC5" stroke-miterlimit="10" x1="35.964" y1="126.502" x2="37.072" y2="107.716"/>
			<line fill="none" stroke="#D2CDC5" stroke-miterlimit="10" x1="37.072" y1="107.716" x2="33.579" y2="90.424"/>
			<line fill="none" stroke="#D2CDC5" stroke-miterlimit="10" x1="32.658" y1="90.1" x2="36.367" y2="88.14"/>
			<line fill="none" stroke="#D2CDC5" stroke-miterlimit="10" x1="41.488" y1="88.713" x2="38.135" y2="92.029"/>
			<line fill="none" stroke="#D2CDC5" stroke-miterlimit="10" x1="38.135" y1="92.029" x2="41.488" y2="105.73"/>
			<line fill="none" stroke="#D2CDC5" stroke-miterlimit="10" x1="41.488" y1="105.73" x2="40.708" y2="125.26"/>
			<line fill="none" stroke="#D2CDC5" stroke-miterlimit="10" x1="45.813" y1="122.139" x2="46.666" y2="103.49"/>
			<line fill="none" stroke="#D2CDC5" stroke-miterlimit="10" x1="46.666" y1="103.49" x2="43.15" y2="93.796"/>
			<line fill="none" stroke="#D2CDC5" stroke-miterlimit="10" x1="43.15" y1="93.796" x2="46.666" y2="89.41"/>
			<line fill="none" stroke="#D2CDC5" stroke-miterlimit="10" x1="53.428" y1="90.1" x2="50.067" y2="95.066"/>
			<line fill="none" stroke="#D2CDC5" stroke-miterlimit="10" x1="50.067" y1="95.066" x2="51.799" y2="101.229"/>
			<line fill="none" stroke="#D2CDC5" stroke-miterlimit="10" x1="51.799" y1="101.229" x2="52.499" y2="119.305"/>
			<line fill="none" stroke="#D2CDC5" stroke-miterlimit="10" x1="56.035" y1="98.147" x2="63.205" y2="91.143"/>
			<line fill="none" stroke="#D2CDC5" stroke-miterlimit="10" x1="63.205" y1="97.359" x2="69.103" y2="91.801"/>
			<line fill="none" stroke="#D2CDC5" stroke-miterlimit="10" x1="61.489" y1="114.764" x2="63.205" y2="97.359"/>
			<line fill="none" stroke="#D2CDC5" stroke-miterlimit="10" x1="66.79" y1="107.822" x2="67.463" y2="96.322"/>
			<line fill="none" stroke="#D2CDC5" stroke-miterlimit="10" x1="67.463" y1="96.322" x2="71.666" y2="92.088"/>
			<line fill="none" stroke="#D2CDC5" stroke-miterlimit="10" x1="71.125" y1="104" x2="71.125" y2="97"/>
			<line fill="none" stroke="#D2CDC5" stroke-miterlimit="10" x1="71.761" y1="95.258" x2="76.089" y2="92.582"/>
			<line fill="none" stroke="#D2CDC5" stroke-miterlimit="10" x1="66.79" y1="107.822" x2="69.563" y2="110.441"/>
			<line fill="none" stroke="#D2CDC5" stroke-miterlimit="10" x1="71.761" y1="104.092" x2="74.354" y2="107.716"/>
			<line fill="none" stroke="#D2CDC5" stroke-miterlimit="10" x1="74.354" y1="100.252" x2="79.358" y2="98.643"/>
			<line fill="none" stroke="#D2CDC5" stroke-miterlimit="10" x1="93.891" y1="91.801" x2="104.44" y2="90.753"/>
			<line fill="none" stroke="#D2CDC5" stroke-miterlimit="10" x1="107.459" y1="89.195" x2="115.965" y2="99.676"/>
			<line fill="none" stroke="#D2CDC5" stroke-miterlimit="10" x1="114.919" y1="88.713" x2="122.642" y2="101.229"/>
			<line fill="none" stroke="#D2CDC5" stroke-miterlimit="10" x1="122.047" y1="89.41" x2="127.887" y2="100.785"/>
			<line fill="none" stroke="#D2CDC5" stroke-miterlimit="10" x1="122.047" y1="89.41" x2="123.024" y2="87.307"/>
			<line fill="none" stroke="#D2CDC5" stroke-miterlimit="10" x1="128.539" y1="92.029" x2="132.719" y2="100.785"/>
			<line fill="none" stroke="#D2CDC5" stroke-miterlimit="10" x1="128.539" y1="92.029" x2="128.955" y2="85.767"/>
			<line fill="none" stroke="#D2CDC5" stroke-miterlimit="10" x1="134.616" y1="84.368" x2="134.293" y2="93.189"/>
			<line fill="none" stroke="#D2CDC5" stroke-miterlimit="10" x1="134.293" y1="93.189" x2="137.008" y2="99.447"/>
			<line fill="none" stroke="#D2CDC5" stroke-miterlimit="10" x1="142.934" y1="99.447" x2="141.059" y2="96.668"/>
			<line fill="none" stroke="#D2CDC5" stroke-miterlimit="10" x1="142.125" y1="97" x2="142.125" y2="83"/>
			<line fill="none" stroke="#D2CDC5" stroke-miterlimit="10" x1="127.887" y1="100.785" x2="139.541" y2="116.659"/>
			<line fill="none" stroke="#D2CDC5" stroke-miterlimit="10" x1="132.719" y1="100.785" x2="145.35" y2="119.305"/>
			<line fill="none" stroke="#D2CDC5" stroke-miterlimit="10" x1="122.642" y1="101.229" x2="131.016" y2="112.814"/>
			<line fill="none" stroke="#D2CDC5" stroke-miterlimit="10" x1="137.008" y1="99.447" x2="148.229" y2="120.384"/>
			<line fill="none" stroke="#D2CDC5" stroke-miterlimit="10" x1="142.934" y1="99.447" x2="149.274" y2="110.242"/>
			<line fill="none" stroke="#D2CDC5" stroke-miterlimit="10" x1="144.272" y1="47.641" x2="142.927" y2="73.27"/>
			<line fill="none" stroke="#D2CDC5" stroke-miterlimit="10" x1="139.541" y1="48.762" x2="139.033" y2="70.84"/>
			<line fill="none" stroke="#D2CDC5" stroke-miterlimit="10" x1="135.65" y1="50.398" x2="135.075" y2="68.176"/>
			<line fill="none" stroke="#D2CDC5" stroke-miterlimit="10" x1="130.629" y1="52.688" x2="129.615" y2="65.643"/>
			<line fill="none" stroke="#D2CDC5" stroke-miterlimit="10" x1="125.599" y1="54.548" x2="124.607" y2="62.832"/>
			<line fill="none" stroke="#D2CDC5" stroke-miterlimit="10" x1="120.62" y1="56.389" x2="119.799" y2="60.225"/>
			<line fill="none" stroke="#D2CDC5" stroke-miterlimit="10" x1="119.799" y1="60.225" x2="121.617" y2="77.134"/>
			<line fill="none" stroke="#D2CDC5" stroke-miterlimit="10" x1="124.607" y1="62.832" x2="126.313" y2="77.682"/>
			<line fill="none" stroke="#D2CDC5" stroke-miterlimit="10" x1="129.615" y1="65.643" x2="131.148" y2="78.244"/>
			<line fill="none" stroke="#D2CDC5" stroke-miterlimit="10" x1="135.075" y1="68.176" x2="136.448" y2="76.215"/>
			<line fill="none" stroke="#D2CDC5" stroke-miterlimit="10" x1="139.033" y1="70.256" x2="140.474" y2="74.742"/>
			<line fill="none" stroke="#D2CDC5" stroke-miterlimit="10" x1="115.965" y1="58.11" x2="118.396" y2="77.134"/>
			<line fill="none" stroke="#D2CDC5" stroke-miterlimit="10" x1="112.447" y1="60.455" x2="114.147" y2="76.215"/>
			<line fill="none" stroke="#D2CDC5" stroke-miterlimit="10" x1="109.067" y1="63.641" x2="110.24" y2="76.215"/>
			<line fill="none" stroke="#D2CDC5" stroke-miterlimit="10" x1="57.125" y1="99" x2="57.125" y2="117"/>
			<line fill="none" stroke="#D2CDC5" stroke-miterlimit="10" x1="80.693" y1="93.098" x2="22.779" y2="86.619"/>
		</g>
	</g>
</g>
</svg>
