<?xml version="1.0" encoding="utf-8"?>
<!-- Generator: Adobe Illustrator 16.0.0, SVG Export Plug-In . SVG Version: 6.00 Build 0)  -->
<!DOCTYPE svg PUBLIC "-//W3C//DTD SVG 1.1//EN" "http://www.w3.org/Graphics/SVG/1.1/DTD/svg11.dtd">
<svg version="1.1" id="Layer_1" xmlns="http://www.w3.org/2000/svg" xmlns:xlink="http://www.w3.org/1999/xlink" x="0px" y="0px"
	 width="295px" height="345px" viewBox="0 0 295 345" enable-background="new 0 0 295 345" xml:space="preserve">
<g>
	<path fill-rule="evenodd" clip-rule="evenodd" fill="#FFFFFF" d="M293,330.69c0,7.903-6.406,14.31-14.31,14.31H15.31
		C7.407,345,1,338.594,1,330.69V14.31C1,6.407,7.407,0,15.31,0H278.69C286.594,0,293,6.407,293,14.31V330.69z"/>
	<g>
		<path fill-rule="evenodd" clip-rule="evenodd" fill="#FFFFFF" d="M197.489,72.53c-0.194,0.588-0.341,0.978-0.45,1.377
			c-1.596,5.677-1.331,6.021,3.65,9.188c1.361,0.864,2.914,2.642,2.995,4.076c0.194,3.544,1.828,4.675,5.073,5.294
			c2.129,0.406,4.616-0.818,6.536,1.746c2.511,3.357,5.399,3.323,9.073,1.469c1.54-0.776,3.734-0.949,5.437-0.559
			c3.826,0.875,5.483,0.246,7.506-3.21c1.341-2.292,3.011-4.097,6.175-4.409c1.31-0.129,3.398-2.526,3.394-3.882
			c-0.019-3.394,1.095-5.929,3.334-8.282c2.16-2.268,2.068-5.009,0.27-7.254c-1.713-2.138-1.699-4.128-1.021-6.494
			c0.94-3.284-0.235-5.641-3.021-7.438c-1.129-0.728-2.281-2.039-2.599-3.292c-1.042-4.134-4.012-6.535-8.274-6.911
			c-1.82-0.161-3.842-1.077-5.248-2.27c-2.692-2.285-4.395-2.395-7.668-0.614c-1.576,0.857-3.892,1.278-5.588,0.827
			c-4.064-1.08-6.274-0.158-8.184,3.586c-0.768,1.506-2.425,3.131-3.988,3.555c-5.128,1.392-5.986,2.353-6.201,7.656
			c-0.058,1.44-0.922,3.115-1.938,4.198c-2.5,2.675-2.833,5.483-0.701,8.589C196.693,70.415,197.039,71.555,197.489,72.53z"/>
		<path fill-rule="evenodd" clip-rule="evenodd" fill="#A59E9E" d="M197.489,72.53c-0.45-0.976-0.796-2.116-1.44-3.052
			c-2.132-3.106-1.799-5.914,0.701-8.589c1.017-1.083,1.881-2.757,1.938-4.198c0.215-5.303,1.073-6.264,6.201-7.656
			c1.563-0.424,3.221-2.049,3.988-3.555c1.909-3.745,4.119-4.667,8.184-3.586c1.696,0.451,4.012,0.03,5.588-0.827
			c3.273-1.781,4.976-1.671,7.668,0.614c1.406,1.193,3.428,2.108,5.248,2.27c4.263,0.375,7.232,2.777,8.274,6.911
			c0.317,1.253,1.47,2.563,2.599,3.292c2.786,1.796,3.962,4.153,3.021,7.438c-0.678,2.366-0.691,4.356,1.021,6.494
			c1.799,2.245,1.891,4.986-0.27,7.254c-2.239,2.353-3.353,4.888-3.334,8.282c0.005,1.356-2.084,3.753-3.394,3.882
			c-3.164,0.312-4.834,2.117-6.175,4.409c-2.022,3.457-3.68,4.085-7.506,3.21c-1.702-0.39-3.896-0.217-5.437,0.559
			c-3.674,1.854-6.563,1.888-9.073-1.469c-1.92-2.564-4.407-1.34-6.536-1.746c-3.245-0.619-4.879-1.75-5.073-5.294
			c-0.081-1.434-1.634-3.211-2.995-4.076c-4.981-3.167-5.246-3.511-3.65-9.188C197.148,73.508,197.295,73.118,197.489,72.53z
			 M246.375,68.617c0.016-12.761-10.364-23.254-23.023-23.27c-12.706-0.016-23.152,10.353-23.249,23.076
			c-0.1,12.662,10.328,23.16,23.061,23.212C235.914,91.689,246.357,81.332,246.375,68.617z"/>
		<path fill-rule="evenodd" clip-rule="evenodd" fill="#FFFFFF" d="M246.375,68.617c-0.018,12.715-10.461,23.072-23.212,23.019
			c-12.732-0.052-23.16-10.551-23.061-23.212c0.097-12.723,10.543-23.092,23.249-23.076
			C236.011,45.362,246.391,55.855,246.375,68.617z M245.187,68.479c-0.047-12.266-9.873-21.992-22.128-21.912
			c-12.063,0.079-21.772,9.895-21.754,21.987c0.021,12.231,9.864,21.967,22.144,21.899
			C235.518,90.386,245.236,80.562,245.187,68.479z"/>
		<path fill-rule="evenodd" clip-rule="evenodd" fill="#A59E9E" d="M245.187,68.479c0.05,12.083-9.669,21.907-21.738,21.974
			c-12.279,0.068-22.123-9.668-22.144-21.899c-0.019-12.092,9.691-21.908,21.754-21.987
			C235.313,46.487,245.14,56.213,245.187,68.479z"/>
	</g>
	
		<text transform="matrix(0.96 0.2799 -0.2799 0.96 205.7803 66.5586)" fill="#FFFFFF" font-family="'BerlinSansFB-Reg'" font-size="14.067">Marks</text>
	<path fill="#CDCCCC" d="M199,112c0,1.657-1.344,3-3,3H36c-1.657,0-3-1.343-3-3l0,0c0-1.657,1.343-3,3-3h160
		C197.656,109,199,110.343,199,112L199,112z"/>
	<path fill="#CDCCCC" d="M82,148c0,1.657-1.343,3-3,3H36c-1.657,0-3-1.343-3-3l0,0c0-1.657,1.343-3,3-3h43
		C80.657,145,82,146.343,82,148L82,148z"/>
	<path fill="#CDCCCC" d="M82,182c0,1.656-1.343,3-3,3H36c-1.657,0-3-1.344-3-3l0,0c0-1.656,1.343-3,3-3h43
		C80.657,179,82,180.344,82,182L82,182z"/>
	<path fill="#CDCCCC" d="M199,217c0,1.656-1.344,3-3,3H36c-1.657,0-3-1.344-3-3l0,0c0-1.656,1.343-3,3-3h160
		C197.656,214,199,215.344,199,217L199,217z"/>
	<path fill="#CDCCCC" d="M199,248c0,1.656-1.344,3-3,3H36c-1.657,0-3-1.344-3-3l0,0c0-1.656,1.343-3,3-3h160
		C197.656,245,199,246.344,199,248L199,248z"/>
	<path fill="#CDCCCC" d="M199,280c0,1.656-1.344,3-3,3H36c-1.657,0-3-1.344-3-3l0,0c0-1.656,1.343-3,3-3h160
		C197.656,277,199,278.344,199,280L199,280z"/>
	<path fill="#CDCCCC" d="M82,232c0,1.656-1.343,3-3,3H36c-1.657,0-3-1.344-3-3l0,0c0-1.656,1.343-3,3-3h43
		C80.657,229,82,230.344,82,232L82,232z"/>
	<path fill="#CDCCCC" d="M82,263c0,1.656-1.343,3-3,3H36c-1.657,0-3-1.344-3-3l0,0c0-1.656,1.343-3,3-3h43
		C80.657,260,82,261.344,82,263L82,263z"/>
	<path fill="#CDCCCC" d="M243,199.5c0,1.934-1.567,3.5-3.5,3.5h-203c-1.933,0-3.5-1.566-3.5-3.5l0,0c0-1.934,1.567-3.5,3.5-3.5h203
		C241.433,196,243,197.566,243,199.5L243,199.5z"/>
	<path fill="#CDCCCC" d="M243,164.5c0,1.933-1.567,3.5-3.5,3.5h-203c-1.933,0-3.5-1.567-3.5-3.5l0,0c0-1.933,1.567-3.5,3.5-3.5h203
		C241.433,161,243,162.567,243,164.5L243,164.5z"/>
	<path fill="#CDCCCC" d="M243,133.5c0,1.933-1.567,3.5-3.5,3.5h-203c-1.933,0-3.5-1.567-3.5-3.5l0,0c0-1.933,1.567-3.5,3.5-3.5h203
		C241.433,130,243,131.567,243,133.5L243,133.5z"/>
	<path fill="#CDCCCC" d="M145,93c0,1.657-1.343,3-3,3H36c-1.657,0-3-1.343-3-3l0,0c0-1.657,1.343-3,3-3h106
		C143.657,90,145,91.343,145,93L145,93z"/>
	<path fill="#CDCCCC" d="M145,70c0,1.657-1.343,3-3,3H36c-1.657,0-3-1.343-3-3l0,0c0-1.657,1.343-3,3-3h106
		C143.657,67,145,68.343,145,70L145,70z"/>
</g>
</svg>
